<?xml version="1.0" encoding="UTF-8"?><svg id="Layer_4" xmlns="http://www.w3.org/2000/svg" xmlns:xlink="http://www.w3.org/1999/xlink" viewBox="0 0 636.05 270.48"><defs><style>.cls-1{letter-spacing:0em;}.cls-2{letter-spacing:-.03em;}.cls-3{letter-spacing:-.03em;}.cls-4{fill:#ff3c35;}.cls-5{fill:#ff60df;}.cls-6{fill:#ff6d2b;}.cls-7{fill:#009aa7;}.cls-8{fill:#bf48a7;}.cls-9{letter-spacing:-.02em;}.cls-10,.cls-11{font-size:8px;}.cls-10,.cls-12{font-family:Raleway-Regular, Raleway;}.cls-13{stroke-width:.71px;}.cls-13,.cls-14{fill:none;stroke:#000;}.cls-13,.cls-14,.cls-15{stroke-miterlimit:10;}.cls-16{letter-spacing:-.02em;}.cls-11{font-family:Raleway-SemiBold, Raleway;}.cls-17{font-family:Raleway-Light, Raleway;}.cls-17,.cls-12{font-size:12px;}.cls-18{letter-spacing:0em;}.cls-19{letter-spacing:0em;}.cls-20{letter-spacing:0em;}.cls-21{letter-spacing:0em;}.cls-22{font-family:Raleway-Bold, Raleway;font-size:16px;}.cls-15{fill:url(#linear-gradient);stroke:url(#linear-gradient-2);}.cls-23{letter-spacing:-.06em;}.cls-24{letter-spacing:-.03em;}.cls-25{letter-spacing:-.03em;}.cls-26{letter-spacing:-.03em;}</style><linearGradient id="linear-gradient" x1="82.3" y1="41.18" x2="320.02" y2="41.18" gradientUnits="userSpaceOnUse"><stop offset="0" stop-color="#ff60df"/><stop offset="1" stop-color="#fff"/></linearGradient><linearGradient id="linear-gradient-2" x1="82.3" y1="41.18" x2="320.02" y2="41.18" gradientUnits="userSpaceOnUse"><stop offset="0" stop-color="#006bb6"/><stop offset="1" stop-color="#fff"/></linearGradient></defs><line class="cls-15" x1="82.3" y1="41.18" x2="320.02" y2="41.18"/><text class="cls-11" transform="translate(83.18 37.57)"><tspan x="0" y="0">Figu</tspan><tspan class="cls-24" x="16.47" y="0">r</tspan><tspan x="19.26" y="0">e 3</tspan></text><polygon class="cls-5" points="508.3 139.99 508.3 225.87 383.64 182.93 258.97 139.99 383.64 97.05 508.3 54.11 508.3 139.99"/><ellipse class="cls-8" cx="512.06" cy="140" rx="31.46" ry="86.37"/><g><polygon class="cls-6" points="98.58 139.95 98.58 114.25 178.86 127.1 259.14 139.95 178.86 152.8 98.58 165.65 98.58 139.95"/><ellipse class="cls-6" cx="97.8" cy="139.95" rx="16.07" ry="25.73"/></g><text class="cls-22" transform="translate(237.29 130.46)"><tspan class="cls-18" x="0" y="0">N</tspan><tspan class="cls-16" x="12.1" y="0">o</tspan><tspan class="cls-26" x="21.49" y="0">w</tspan></text><ellipse class="cls-4" cx="515.69" cy="141.26" rx="9.66" ry="20.94"/><ellipse class="cls-7" cx="514.35" cy="206.23" rx="5.1" ry="11.81"/><text class="cls-12" transform="translate(398.85 140.6)"><tspan x="0" y="0">p</tspan><tspan class="cls-25" x="7.4" y="0">r</tspan><tspan x="11.3" y="0">obable - baseline</tspan></text><text class="cls-12" transform="translate(444.41 206.33)"><tspan x="0" y="0">p</tspan><tspan class="cls-25" x="7.4" y="0">r</tspan><tspan class="cls-1" x="11.3" y="0">e</tspan><tspan class="cls-25" x="18.29" y="0">f</tspan><tspan x="21.94" y="0">e</tspan><tspan class="cls-19" x="28.98" y="0">r</tspan><tspan x="33.11" y="0">able</tspan></text><text class="cls-12" transform="translate(489.05 100.87)"><tspan x="0" y="0">possible</tspan></text><g><line class="cls-14" x1="88.59" y1="248.64" x2="536.88" y2="248.64"/><polygon points="91.9 252.73 92.58 252 88.97 248.65 92.58 245.29 91.9 244.56 87.5 248.65 91.9 252.73"/><path d="M530.04,253.44c-.15-.23-.08-.54,.15-.69l6.45-4.11-6.45-4.11c-.23-.15-.3-.46-.15-.69,.15-.23,.46-.3,.69-.15l7.11,4.53c.14,.09,.23,.25,.23,.42s-.09,.33-.23,.42l-7.11,4.53c-.08,.05-.18,.08-.27,.08-.17,0-.33-.08-.42-.23Z"/></g><text class="cls-12" transform="translate(242.17 244.92)"><tspan x="0" y="0">time</tspan></text><g><line class="cls-13" x1="402.39" y1="142.87" x2="513.66" y2="142.87"/><circle cx="513.59" cy="142.87" r="1.33"/></g><g><line class="cls-13" x1="448.11" y1="208.61" x2="512.88" y2="208.61"/><circle cx="512.81" cy="208.61" r="1.33"/></g><text class="cls-17" transform="translate(106.21 144.28)"><tspan x="0" y="0">past</tspan></text><text class="cls-17" transform="translate(320.63 144.28)"><tspan x="0" y="0">futu</tspan><tspan class="cls-25" x="21.74" y="0">r</tspan><tspan x="25.52" y="0">e</tspan></text><text class="cls-10" transform="translate(83.28 52.76)"><tspan class="cls-2" x="0" y="0">F</tspan><tspan x="4.44" y="0">utu</tspan><tspan class="cls-24" x="16.62" y="0">r</tspan><tspan x="19.22" y="0">es </tspan><tspan class="cls-21" x="29.86" y="0">c</tspan><tspan x="34.21" y="0">one based on</tspan><tspan class="cls-3" x="84.7" y="0"> </tspan><tspan class="cls-23" x="86.46" y="0">V</tspan><tspan x="91.38" y="0">o</tspan><tspan class="cls-24" x="96.14" y="0">r</tspan><tspan x="98.74" y="0">os (20</tspan><tspan class="cls-9" x="120.65" y="0">1</tspan><tspan class="cls-20" x="123.93" y="0">7)</tspan></text></svg>