<?xml version="1.0" encoding="UTF-8"?><svg id="Layer_1" xmlns="http://www.w3.org/2000/svg" xmlns:xlink="http://www.w3.org/1999/xlink" viewBox="0 0 636.05 360.33"><defs><style>.cls-1{letter-spacing:-.01em;}.cls-2{letter-spacing:-.02em;}.cls-3{letter-spacing:-.02em;}.cls-4{letter-spacing:-.02em;}.cls-5{font-family:Raleway-Bold, Raleway;font-size:10px;}.cls-6{letter-spacing:-.01em;}.cls-7{letter-spacing:-.02em;}.cls-8{letter-spacing:0em;}.cls-9{font-family:Raleway-SemiBold, Raleway;font-size:8px;}.cls-10{letter-spacing:-.02em;}.cls-11{letter-spacing:-.03em;}.cls-12{letter-spacing:-.03em;}.cls-13{letter-spacing:0em;}.cls-14{letter-spacing:-.01em;}.cls-15{fill:url(#linear-gradient-5);stroke:url(#linear-gradient-6);}.cls-15,.cls-16,.cls-17,.cls-18,.cls-19{stroke-miterlimit:10;}.cls-20{letter-spacing:0em;}.cls-21{letter-spacing:0em;}.cls-22{letter-spacing:0em;}.cls-23{letter-spacing:.03em;}.cls-24{font-family:Raleway-Light, Raleway;font-size:21px;}.cls-16{fill:url(#linear-gradient-3);}.cls-16,.cls-17,.cls-18,.cls-19{stroke:#ff6d2b;stroke-width:.28px;}.cls-17{fill:url(#linear-gradient-2);}.cls-18{fill:url(#linear-gradient-4);}.cls-25{font-family:Raleway-Regular, Raleway;font-size:12px;}.cls-26{letter-spacing:0em;}.cls-27{letter-spacing:-.03em;}.cls-28{letter-spacing:0em;}.cls-29{letter-spacing:0em;}.cls-30{letter-spacing:-.07em;}.cls-31{letter-spacing:-.01em;}.cls-32{letter-spacing:-.03em;}.cls-33{letter-spacing:-.03em;}.cls-34{letter-spacing:-.03em;}.cls-19{fill:url(#linear-gradient);}.cls-35{letter-spacing:-.03em;}</style><linearGradient id="linear-gradient" x1="208.06" y1="118.69" x2="422.57" y2="118.69" gradientUnits="userSpaceOnUse"><stop offset="0" stop-color="#fff4fd"/><stop offset="1" stop-color="#ff60df"/></linearGradient><linearGradient id="linear-gradient-2" x1="209.3" y1="174.77" x2="423.81" y2="174.77" xlink:href="#linear-gradient"/><linearGradient id="linear-gradient-3" x1="211.38" y1="236.37" x2="425.89" y2="236.37" xlink:href="#linear-gradient"/><linearGradient id="linear-gradient-4" x1="209.3" y1="287.6" x2="423.81" y2="287.6" xlink:href="#linear-gradient"/><linearGradient id="linear-gradient-5" x1="82.34" y1="41.44" x2="320.06" y2="41.44" gradientUnits="userSpaceOnUse"><stop offset="0" stop-color="#ff60df"/><stop offset="1" stop-color="#fff"/></linearGradient><linearGradient id="linear-gradient-6" x1="82.34" y1="41.44" x2="320.06" y2="41.44" gradientUnits="userSpaceOnUse"><stop offset="0" stop-color="#006bb6"/><stop offset="1" stop-color="#fff"/></linearGradient></defs><text class="cls-24" transform="translate(83.17 70.09)"><tspan x="0" y="0">PR</tspan><tspan class="cls-27" x="26.67" y="0">OTO</tspan><tspan x="68.94" y="0">TYPE</tspan></text><text class="cls-24" transform="translate(400.87 70.09)"><tspan x="0" y="0">PR</tspan><tspan class="cls-32" x="26.67" y="0">OV</tspan><tspan x="55.65" y="0">O</tspan><tspan class="cls-26" x="71.46" y="0">C</tspan><tspan class="cls-30" x="85.74" y="0">A</tspan><tspan x="98.45" y="0">TYPE</tspan></text><rect class="cls-19" x="208.06" y="113.24" width="214.51" height="10.91" rx="5.45" ry="5.45"/><text class="cls-5" transform="translate(290.07 97.97)"><tspan x="0" y="0">p</tspan><tspan class="cls-11" x="6.34" y="0">r</tspan><tspan x="9.95" y="0">oject aim</tspan></text><text class="cls-25" transform="translate(83.17 120.28)"><tspan x="0" y="0">d</tspan><tspan class="cls-14" x="7.46" y="0">e</tspan><tspan class="cls-4" x="14.34" y="0">v</tspan><tspan x="20.52" y="0">eloping a </tspan><tspan x="0" y="14.4">futu</tspan><tspan class="cls-33" x="22.24" y="14.4">r</tspan><tspan x="26.14" y="14.4">e p</tspan><tspan class="cls-34" x="43.64" y="14.4">r</tspan><tspan x="47.54" y="14.4">oduct</tspan></text><text class="cls-25" transform="translate(457.78 120.28)"><tspan x="0" y="0">causing a </tspan><tspan class="cls-28" x="55.79" y="0">c</tspan><tspan x="62.32" y="0">ertain </tspan><tspan class="cls-28" x="-25.78" y="14.4">e</tspan><tspan class="cls-34" x="-18.79" y="14.4">ff</tspan><tspan x="-12.12" y="14.4">ect on an audien</tspan><tspan class="cls-28" x="80.17" y="14.4">c</tspan><tspan x="86.7" y="14.4">e</tspan></text><text class="cls-5" transform="translate(245.25 159.46)"><tspan x="0" y="0">ar</tspan><tspan class="cls-31" x="9.61" y="0">t</tspan><tspan class="cls-29" x="13.32" y="0">e</tspan><tspan class="cls-21" x="19.26" y="0">f</tspan><tspan x="22.88" y="0">act(s) </tspan><tspan class="cls-11" x="51.66" y="0">r</tspan><tspan x="55.27" y="0">ep</tspan><tspan class="cls-11" x="67.6" y="0">r</tspan><tspan x="71.21" y="0">ese</tspan><tspan class="cls-29" x="88.16" y="0">n</tspan><tspan x="94.15" y="0">ts (part </tspan><tspan class="cls-21" x="130.65" y="0">o</tspan><tspan class="cls-23" x="136.63" y="0">f</tspan><tspan x="140.63" y="0">)</tspan></text><text class="cls-25" transform="translate(83.17 170.35)"><tspan x="0" y="0">nea</tspan><tspan class="cls-7" x="20.58" y="0">r</tspan><tspan class="cls-13" x="24.5" y="0" xml:space="preserve"> futu</tspan><tspan class="cls-33" x="49.8" y="0">r</tspan><tspan x="53.7" y="0">e </tspan><tspan x="0" y="14.4">solution</tspan></text><text class="cls-25" transform="translate(474.4 178.5)"><tspan x="0" y="0">a futu</tspan><tspan class="cls-33" x="31.84" y="0">r</tspan><tspan x="35.74" y="0">e</tspan><tspan class="cls-12" x="42.78" y="0"> </tspan><tspan class="cls-10" x="45.52" y="0">w</tspan><tspan x="55.04" y="0">orld</tspan></text><rect class="cls-17" x="209.3" y="169.31" width="214.51" height="10.91" rx="5.45" ry="5.45"/><text class="cls-5" transform="translate(280.34 218.25)"><tspan x="0" y="0">ar</tspan><tspan class="cls-31" x="9.61" y="0">t</tspan><tspan class="cls-29" x="13.32" y="0">e</tspan><tspan class="cls-21" x="19.26" y="0">f</tspan><tspan x="22.88" y="0">act qualit</tspan><tspan class="cls-35" x="68.32" y="0">y</tspan></text><text class="cls-25" transform="translate(83.17 238.77)"><tspan x="0" y="0">understandable</tspan></text><text class="cls-25" transform="translate(498.12 238.77)"><tspan x="0" y="0">dissona</tspan><tspan class="cls-28" x="42.44" y="0">n</tspan><tspan x="49.38" y="0">t</tspan></text><rect class="cls-16" x="211.38" y="230.92" width="214.51" height="10.91" rx="5.45" ry="5.45"/><text class="cls-5" transform="translate(276.93 270.76)"><tspan x="0" y="0">ar</tspan><tspan class="cls-31" x="9.61" y="0">t</tspan><tspan class="cls-29" x="13.32" y="0">e</tspan><tspan class="cls-21" x="19.26" y="0">f</tspan><tspan x="22.88" y="0">act(s) elicits</tspan></text><text class="cls-25" transform="translate(83.17 282.18)"><tspan x="0" y="0">an</tspan><tspan class="cls-1" x="13.54" y="0">s</tspan><tspan class="cls-2" x="19.26" y="0">w</tspan><tspan x="28.79" y="0">ers and poi</tspan><tspan class="cls-28" x="90.17" y="0">n</tspan><tspan x="97.1" y="0">ts </tspan><tspan class="cls-22" x="0" y="14.4">o</tspan><tspan class="cls-3" x="7.04" y="14.4">f</tspan><tspan class="cls-8" x="10.75" y="14.4" xml:space="preserve"> imp</tspan><tspan class="cls-34" x="34.86" y="14.4">r</tspan><tspan class="cls-10" x="38.76" y="14.4">o</tspan><tspan class="cls-4" x="45.67" y="14.4">v</tspan><tspan x="51.85" y="14.4">eme</tspan><tspan class="cls-28" x="76.97" y="14.4">n</tspan><tspan x="83.9" y="14.4">t</tspan></text><text class="cls-25" transform="translate(456.4 282.18)"><tspan class="cls-28" x="0" y="0">c</tspan><tspan x="6.53" y="0">o</tspan><tspan class="cls-6" x="13.67" y="0">n</tspan><tspan class="cls-4" x="20.52" y="0">v</tspan><tspan x="26.7" y="0">ers</tspan><tspan class="cls-20" x="43.8" y="0">a</tspan><tspan x="50.29" y="0">tion and </tspan><tspan x="41.09" y="14.4">questions</tspan></text><rect class="cls-18" x="209.3" y="282.15" width="214.51" height="10.91" rx="5.45" ry="5.45"/><text class="cls-9" transform="translate(83.17 37.58)"><tspan x="0" y="0">Figu</tspan><tspan class="cls-33" x="16.47" y="0">r</tspan><tspan x="19.26" y="0">e 1</tspan></text><line class="cls-15" x1="82.34" y1="41.44" x2="320.06" y2="41.44"/></svg>